<?xml version="1.0" standalone="no"?><!DOCTYPE svg PUBLIC "-//W3C//DTD SVG 1.1//EN" "http://www.w3.org/Graphics/SVG/1.1/DTD/svg11.dtd"><svg t="1557806161432" class="icon" style="" viewBox="0 0 1194 1024" version="1.1" xmlns="http://www.w3.org/2000/svg" p-id="3429" xmlns:xlink="http://www.w3.org/1999/xlink" width="37.3125" height="32"><defs><style type="text/css"></style></defs><path d="M713.439573 79.872l452.437334 751.274667c64.170667 106.496 17.664 192.853333-103.850667 192.853333H132.74624C11.14624 1024-35.275093 937.642667 28.895573 831.146667l452.266667-751.274667c64.085333-106.496 168.106667-106.496 232.277333 0zM597.38624 238.933333a68.266667 68.266667 0 0 0-68.266667 68.266667V597.333333a68.266667 68.266667 0 1 0 136.533334 0V307.2a68.266667 68.266667 0 0 0-68.266667-68.266667z m0 486.4a68.266667 68.266667 0 0 0-68.266667 68.266667v34.133333a68.266667 68.266667 0 1 0 136.533334 0v-34.133333a68.266667 68.266667 0 0 0-68.266667-68.266667z" fill="#727082" p-id="3430"></path></svg>