<?xml version="1.0" standalone="no"?><!DOCTYPE svg PUBLIC "-//W3C//DTD SVG 1.1//EN" "http://www.w3.org/Graphics/SVG/1.1/DTD/svg11.dtd"><svg t="1557805957598" class="icon" style="" viewBox="0 0 1024 1024" version="1.1" xmlns="http://www.w3.org/2000/svg" p-id="1989" xmlns:xlink="http://www.w3.org/1999/xlink" width="32" height="32"><defs><style type="text/css"></style></defs><path d="M901.903756 487.726974h-73.111524V292.884764A97.823219 97.823219 0 0 0 731.334571 194.988434H536.49236v-73.111524a121.803798 121.803798 0 1 0-243.607596 0v73.111524H98.042553A97.384549 97.384549 0 0 0 1.169784 292.884764v185.337712h72.526632a131.600743 131.600743 0 0 1 0 263.201485h-73.111524v185.337713A97.823219 97.823219 0 0 0 98.115665 1024H283.160931v-73.111524a131.600743 131.600743 0 1 1 263.201485 0v73.111524H731.334571a97.823219 97.823219 0 0 0 97.457661-97.530773V731.553905h73.111524a121.950021 121.950021 0 0 0 0-243.826931z" p-id="1990" fill="#727082"></path></svg>